<svg xmlns="http://www.w3.org/2000/svg" width="186" height="103" viewBox="0 0 186 103" fill="none">
	<rect x="64.4185" y="14.3774" width="57.8728" height="54.8552" rx="1.31379" fill="#E3E3E3" />
	<rect x="67.9799" y="27.5364" width="51.0468" height="12.574" rx="1.31379" fill="white" />
	<mask id="mask0" mask-type="alpha" maskUnits="userSpaceOnUse" x="67" y="27" width="53" height="14">
		<rect x="67.9799" y="27.5364" width="51.0468" height="12.574" rx="1.31379" fill="white" />
	</mask>
	<g mask="url(#mask0)">
		<path fill-rule="evenodd" clip-rule="evenodd" d="M70.651 32.5795C70.651 32.2167 70.9451 31.9226 71.3079 31.9226H80.3815C80.7443 31.9226 81.0384 32.2167 81.0384 32.5795V35.0672C81.0384 35.43 80.7443 35.7241 80.3815 35.7241H71.3079C70.9451 35.7241 70.651 35.43 70.651 35.0672V32.5795Z" fill="#E4E4E4" />
	</g>
	<rect x="67.9799" y="43.0345" width="51.0468" height="22.8087" rx="1.31379" fill="white" />
	<mask id="mask1" mask-type="alpha" maskUnits="userSpaceOnUse" x="67" y="43" width="53" height="23">
		<rect x="67.9799" y="43.0345" width="51.0468" height="22.8087" rx="1.31379" fill="white" />
	</mask>
	<g mask="url(#mask1)">
		<rect x="70.651" y="47.4208" width="38.5819" height="3.80145" rx="0.656896" fill="#E4E4E4" />
		<rect x="70.651" y="54.1465" width="14.2456" height="3.80145" rx="0.656896" fill="#E4E4E4" />
	</g>
	<path fill-rule="evenodd" clip-rule="evenodd" d="M68.2767 20.0055C68.2767 19.6427 68.5708 19.3486 68.9336 19.3486H90.7689C91.1317 19.3486 91.4258 19.6427 91.4258 20.0055V23.078C91.4258 23.4408 91.1317 23.7349 90.7689 23.7349H68.9336C68.5708 23.7349 68.2767 23.4408 68.2767 23.078V20.0055Z" fill="white" />
	<rect x="127.93" y="14.3774" width="57.8728" height="84.2168" rx="1.31379" fill="#E3E3E3" />
	<rect x="131.492" y="27.8287" width="51.0468" height="35.3827" rx="1.31379" fill="white" />
	<mask id="mask2" mask-type="alpha" maskUnits="userSpaceOnUse" x="131" y="27" width="52" height="37">
		<rect x="131.492" y="27.8287" width="51.0468" height="35.3827" rx="1.31379" fill="white" />
	</mask>
	<g mask="url(#mask2)">
		<rect x="131.51" y="26.6929" width="55.3861" height="27.0612" fill="#F1F1F1" />
		<path fill-rule="evenodd" clip-rule="evenodd" d="M134.163 57.1427C134.163 56.7799 134.457 56.4858 134.82 56.4858H145.674C146.037 56.4858 146.331 56.7799 146.331 57.1427V59.6304C146.331 59.9932 146.037 60.2873 145.674 60.2873H134.82C134.457 60.2873 134.163 59.9932 134.163 59.6304V57.1427Z" fill="#E4E4E4" />
	</g>
	<rect x="131.195" y="67.0129" width="51.0468" height="11.4044" rx="1.31379" fill="white" />
	<mask id="mask3" mask-type="alpha" maskUnits="userSpaceOnUse" x="131" y="67" width="52" height="12">
		<rect x="131.195" y="67.0129" width="51.0468" height="11.4044" rx="1.31379" fill="white" />
	</mask>
	<g mask="url(#mask3)">
	</g>
	<rect x="133.866" y="70.8143" width="19.2909" height="3.80145" rx="0.656896" fill="#E4E4E4" />
	<rect x="131.195" y="81.9263" width="51.0468" height="11.4044" rx="1.31379" fill="white" />
	<mask id="mask4" mask-type="alpha" maskUnits="userSpaceOnUse" x="131" y="81" width="52" height="13">
		<rect x="131.195" y="81.9263" width="51.0468" height="11.4044" rx="1.31379" fill="white" />
	</mask>
	<g mask="url(#mask4)">
	</g>
	<rect x="133.866" y="85.7277" width="13.3553" height="3.80145" rx="0.656896" fill="#E4E4E4" />
	<path fill-rule="evenodd" clip-rule="evenodd" d="M131.788 20.0055C131.788 19.6427 132.082 19.3486 132.445 19.3486H146.267C146.63 19.3486 146.924 19.6427 146.924 20.0055V23.078C146.924 23.4408 146.63 23.7349 146.267 23.7349H132.445C132.082 23.7349 131.788 23.4408 131.788 23.078V20.0055Z" fill="white" />
	<rect x="0.90686" y="14.3774" width="57.8728" height="85.9713" rx="1.31379" fill="#E3E3E3" />
	<rect x="4.46826" y="27.8287" width="51.0468" height="12.2816" rx="1.31379" fill="white" />
	<rect x="7.13928" y="31.9226" width="25.8202" height="3.80145" rx="0.656896" fill="#E4E4E4" />
	<rect x="4.46826" y="43.9119" width="51.0468" height="12.2816" rx="1.31379" fill="white" />
	<rect x="7.13928" y="48.0057" width="19.5877" height="3.80145" rx="0.656896" fill="#E4E4E4" />
	<rect x="6.84247" y="87.7747" width="13.3553" height="3.80145" rx="0.656896" fill="#E4E4E4" />
	<rect x="4.39703" y="59.6907" width="51.0468" height="35.3827" rx="1.31379" fill="white" />
	<mask id="mask5" mask-type="alpha" maskUnits="userSpaceOnUse" x="4" y="59" width="52" height="37">
		<rect x="4.39703" y="59.6907" width="51.0468" height="35.3827" rx="1.31379" fill="white" />
	</mask>
	<g mask="url(#mask5)">
		<rect x="4.41547" y="58.5548" width="55.3861" height="27.0612" fill="#F1F1F1" />
		<rect x="7.06805" y="88.3478" width="12.1681" height="3.80145" rx="0.656896" fill="#E4E4E4" />
	</g>
	<rect x="4.76501" y="19.3486" width="14.2456" height="4.38629" rx="0.656896" fill="white" />
	<path fill-rule="evenodd" clip-rule="evenodd" d="M 89.7006 11.4048 C 88.8607 11.4048 88.18 10.7229 88.18 9.8842 V 2.281 C 88.18 1.441 88.8607 0.7603 89.7006 0.7603 H 97.3038 C 98.1426 0.7603 98.8245 1.441 98.8245 2.281 V 9.8842 C 98.8245 10.7229 98.1426 11.4048 97.3038 11.4048 H 89.7006 z M 95.7832 9.1238 C 96.2038 9.1238 96.5435 8.7841 96.5435 8.3635 V 3.8016 C 96.5435 3.381 96.2038 3.0413 95.7832 3.0413 C 95.3626 3.0413 95.0229 3.381 95.0229 3.8016 V 8.3635 C 95.0229 8.7841 95.3626 9.1238 95.7832 9.1238 z M 94.2626 3.8016 C 94.2626 3.381 93.9228 3.0413 93.5022 3.0413 C 93.0817 3.0413 92.7419 3.381 92.7419 3.8016 V 5.3222 C 92.7419 5.7428 93.0817 6.0826 93.5022 6.0826 C 93.9228 6.0826 94.2626 5.7428 94.2626 5.3222 V 3.8016 z M 91.2213 7.6032 C 91.6418 7.6032 91.9816 7.2634 91.9816 6.8429 V 3.8016 C 91.9816 3.381 91.6418 3.0413 91.2213 3.0413 C 90.8007 3.0413 90.461 3.381 90.461 3.8016 V 6.8429 C 90.461 7.2634 90.8007 7.6032 91.2213 7.6032 z"  fill="white"/>
</svg>
